<svg xmlns="http://www.w3.org/2000/svg" viewBox="0 0 266.14 406.5"><defs><style>.cls-1{fill:#8bbe57;stroke:#689141;}.cls-1,.cls-3,.cls-4{stroke-miterlimit:10;stroke-width:8px;}.cls-2{fill:#689141;}.cls-3{fill:#6e5047;stroke:#5b443b;}.cls-4{fill:#e8883c;stroke:#cc7933;}</style></defs><g id="Layer_2" data-name="Layer 2"><g id="Layer_1-2" data-name="Layer 1"><path class="cls-1" d="M118.53,153.07S132.2,64.89,4.33,68.86C4.33,68.86,13.15,176.88,118.53,153.07Z"/><path class="cls-2" d="M108,143.23S54.59,89.14,32.55,85.61"/><path class="cls-1" d="M133.75,121.22S121.3-12.64,261.69,5.73C261.69,5.73,245.51,140.52,133.75,121.22Z"/><path class="cls-2" d="M143.4,111.88s17.61-34,91-86.3"/><path class="cls-2" d="M130.39,120.36c-22.1,30.3-11.44,113.7-11.44,113.7l11.44,1.71s-11.51-82.89,7.48-112.66"/><path class="cls-3" d="M207,266.24c-33-5.45-26.21-32.34-45.61-34.73s-17.7,17.36-52.43-1.59c-34.42-18.8-63.66,36.32-63.66,36.32Z"/><path class="cls-4" d="M203.58,270.15l-6.34,91.65c0,22.47-16.17,40.7-36.1,40.7H76.76c-19.93,0-36.09-18.23-36.09-40.7l-6.34-91.65Z"/><rect class="cls-4" x="11.89" y="254.83" width="214.13" height="27.66" rx="11.57"/></g></g></svg>